<svg width="26" height="26" viewBox="0 0 26 26" fill="none" xmlns="http://www.w3.org/2000/svg">
<g clip-path="url(#clip0_36_74)">
<path fill-rule="evenodd" clip-rule="evenodd" d="M3.06389 0.829027C3.34822 0.545121 3.68965 0.324884 4.06554 0.18291C4.44142 0.040937 4.84319 -0.0195309 5.24422 0.00551397C5.64524 0.0305588 6.03636 0.140544 6.39167 0.328182C6.74697 0.51582 7.05834 0.776825 7.30514 1.0939L10.222 4.84115C10.7566 5.52853 10.9451 6.4239 10.7339 7.2689L9.84502 10.8277C9.79938 11.012 9.80202 11.205 9.85269 11.388C9.90335 11.571 10.0003 11.7379 10.1343 11.8725L14.1269 15.8652C14.2617 15.9994 14.4288 16.0965 14.6122 16.1472C14.7955 16.1978 14.9888 16.2003 15.1734 16.1544L18.7305 15.2655C19.1476 15.1619 19.5827 15.1541 20.0032 15.2427C20.4236 15.3314 20.8186 15.5142 21.1583 15.7774L24.9055 18.6927C26.2526 19.7408 26.3761 21.7314 25.1704 22.9355L23.4901 24.6158C22.2876 25.8183 20.4904 26.3464 18.815 25.7565C14.5261 24.2495 10.6324 21.7944 7.42377 18.574C4.20362 15.3659 1.74854 11.4727 0.241265 7.1844C-0.346985 5.51065 0.18114 3.71178 1.38364 2.50928L3.06389 0.829027Z" fill="white"/>
</g>
<defs>
<clipPath id="clip0_36_74">
<rect width="26" height="26" fill="white"/>
</clipPath>
</defs>
</svg>
