<svg width="28" height="28" viewBox="0 0 28 28" fill="none" xmlns="http://www.w3.org/2000/svg">
<g clip-path="url(#clip0_11_52)">
<path d="M28.0001 14.086C28.0001 6.30554 21.7316 -0.00146484 14.0001 -0.00146484C6.26508 0.000285156 -0.00341797 6.30554 -0.00341797 14.0878C-0.00341797 21.1175 5.11708 26.945 11.8091 28.002V18.1583H8.25658V14.0878H11.8126V10.9815C11.8126 7.45179 13.9038 5.50229 17.1011 5.50229C18.6341 5.50229 20.2353 5.77704 20.2353 5.77704V9.24203H18.4696C16.7318 9.24203 16.1893 10.3288 16.1893 11.4435V14.086H20.0708L19.4513 18.1565H16.1876V28.0003C22.8796 26.9433 28.0001 21.1158 28.0001 14.086Z" fill="white"/>
</g>
<defs>
<clipPath id="clip0_11_52">
<rect width="28" height="28" fill="white"/>
</clipPath>
</defs>
</svg>
